# xmcd
#
# Track frame offsets: 
#        150
#        16858
#        31228
#        48629
#        62736
#        66254
#        83430
#        106832
#        124163
#        139256
#        165253
#        184003
#        204180
#        226602
#        243062
#        262253
#        282275
#
# Disc length: 4075 seconds
#
# Revision: 2
# Processed by: cddbd v1.5.2PL0 Copyright (c) Steve Scherf et al.
# Submitted via: ExactAudioCopyFreeDBPlugin 1.0
#
DISCID=da0fe911
DTITLE=鄧麗君 - 天國的情人 鄧麗君逝世十周年紀念聲影存集 [CD3)
DYEAR=2005
DGENRE=Pop
TTITLE0=漫步人生路
TTITLE1=東山飄雨西山晴
TTITLE2=從今日起
TTITLE3=水上人 (Live)
TTITLE4=原鄉情濃 (Live)
TTITLE5=娘心
TTITLE6=如果沒有你
TTITLE7=つぐない
TTITLE8=海韻
TTITLE9=THE POWER OF LOVE (Live)
TTITLE10=時の流れに身をまかせ
TTITLE11=別れの予感
TTITLE12=川の流れのように
TTITLE13=莫忘今宵
TTITLE14=人面桃花
TTITLE15=SMOKE GETS IN YOUR EYES
TTITLE16=不了情
EXTD=YEAR: 2005\n
EXTT0=
EXTT1=
EXTT2=
EXTT3=
EXTT4=
EXTT5=
EXTT6=
EXTT7=
EXTT8=
EXTT9=
EXTT10=
EXTT11=
EXTT12=
EXTT13=
EXTT14=
EXTT15=
EXTT16=
PLAYORDER=
